<mxfile host="app.diagrams.net" modified="2024-06-17T15:59:54.747Z" agent="Mozilla/5.0 (Windows NT 10.0; Win64; x64) AppleWebKit/537.36 (KHTML, like Gecko) Chrome/125.0.0.0 Safari/537.36" etag="iKNLNmNYfOAaACn3uZ2R" version="24.5.4" type="github">
  <diagram id="prtHgNgQTEPvFCAcTncT" name="Page-1">
    <mxGraphModel dx="1434" dy="738" grid="1" gridSize="10" guides="1" tooltips="1" connect="1" arrows="1" fold="1" page="1" pageScale="1" pageWidth="827" pageHeight="1169" math="0" shadow="0">
      <root>
        <mxCell id="0" />
        <mxCell id="1" parent="0" />
        <mxCell id="dNxyNK7c78bLwvsdeMH5-19" value="Road Trip Buddy" style="swimlane;html=1;childLayout=stackLayout;resizeParent=1;resizeParentMax=0;horizontal=0;startSize=20;horizontalStack=0;" parent="1" vertex="1">
          <mxGeometry x="120" y="40" width="970" height="1640" as="geometry" />
        </mxCell>
        <mxCell id="dNxyNK7c78bLwvsdeMH5-20" value="Client" style="swimlane;html=1;startSize=20;horizontal=0;" parent="dNxyNK7c78bLwvsdeMH5-19" vertex="1">
          <mxGeometry x="20" width="950" height="320" as="geometry" />
        </mxCell>
        <mxCell id="dNxyNK7c78bLwvsdeMH5-21" value="MicroService" style="swimlane;html=1;startSize=20;horizontal=0;" parent="dNxyNK7c78bLwvsdeMH5-19" vertex="1">
          <mxGeometry x="20" y="320" width="950" height="780" as="geometry" />
        </mxCell>
        <mxCell id="64y1LBpcgvXxOkqX7Srh-3" value="" style="edgeStyle=orthogonalEdgeStyle;rounded=0;orthogonalLoop=1;jettySize=auto;html=1;" edge="1" parent="dNxyNK7c78bLwvsdeMH5-21" source="64y1LBpcgvXxOkqX7Srh-1" target="64y1LBpcgvXxOkqX7Srh-2">
          <mxGeometry relative="1" as="geometry" />
        </mxCell>
        <mxCell id="64y1LBpcgvXxOkqX7Srh-1" value="Asynchronously get EFSA OpenFoodTox data. Post to EFSAOpenFoodTox" style="rounded=0;whiteSpace=wrap;html=1;" vertex="1" parent="dNxyNK7c78bLwvsdeMH5-21">
          <mxGeometry x="50" y="20" width="150" height="100" as="geometry" />
        </mxCell>
        <mxCell id="64y1LBpcgvXxOkqX7Srh-5" value="" style="edgeStyle=orthogonalEdgeStyle;rounded=0;orthogonalLoop=1;jettySize=auto;html=1;" edge="1" parent="dNxyNK7c78bLwvsdeMH5-21" source="64y1LBpcgvXxOkqX7Srh-2" target="64y1LBpcgvXxOkqX7Srh-4">
          <mxGeometry relative="1" as="geometry" />
        </mxCell>
        <mxCell id="64y1LBpcgvXxOkqX7Srh-2" value="Asynchronously get FDA EAFUS data. Post to EAFUS" style="rounded=0;whiteSpace=wrap;html=1;" vertex="1" parent="dNxyNK7c78bLwvsdeMH5-21">
          <mxGeometry x="50" y="200" width="150" height="100" as="geometry" />
        </mxCell>
        <mxCell id="64y1LBpcgvXxOkqX7Srh-8" value="" style="edgeStyle=orthogonalEdgeStyle;rounded=0;orthogonalLoop=1;jettySize=auto;html=1;" edge="1" parent="dNxyNK7c78bLwvsdeMH5-21" source="64y1LBpcgvXxOkqX7Srh-4" target="64y1LBpcgvXxOkqX7Srh-7">
          <mxGeometry relative="1" as="geometry" />
        </mxCell>
        <mxCell id="64y1LBpcgvXxOkqX7Srh-4" value="SQL: select EAFUS.name, EFSAOpenFoodTox.Genotoxicity, EFSAOpenFoodTox.Mutagenicity, EFSAOpenFoodTox.Carcinogenicity from EFSAOpenFoodTox join EAFUS on EFSAOpenFoodTox.CASNumber = EAFUS.CASNumber" style="rounded=0;whiteSpace=wrap;html=1;" vertex="1" parent="dNxyNK7c78bLwvsdeMH5-21">
          <mxGeometry x="30" y="380" width="190" height="160" as="geometry" />
        </mxCell>
        <mxCell id="64y1LBpcgvXxOkqX7Srh-7" value="For each result POST to Ingredients table" style="rounded=0;whiteSpace=wrap;html=1;" vertex="1" parent="dNxyNK7c78bLwvsdeMH5-21">
          <mxGeometry x="30" y="620" width="190" height="160" as="geometry" />
        </mxCell>
        <mxCell id="dNxyNK7c78bLwvsdeMH5-22" value="Heroku DB" style="swimlane;html=1;startSize=20;horizontal=0;" parent="dNxyNK7c78bLwvsdeMH5-19" vertex="1">
          <mxGeometry x="20" y="1100" width="950" height="540" as="geometry" />
        </mxCell>
        <mxCell id="64y1LBpcgvXxOkqX7Srh-9" value="HerokuDB receives updated safety info to Ingredients table" style="rounded=0;whiteSpace=wrap;html=1;" vertex="1" parent="dNxyNK7c78bLwvsdeMH5-22">
          <mxGeometry x="30" y="80" width="190" height="160" as="geometry" />
        </mxCell>
        <mxCell id="64y1LBpcgvXxOkqX7Srh-10" value="" style="edgeStyle=orthogonalEdgeStyle;rounded=0;orthogonalLoop=1;jettySize=auto;html=1;" edge="1" parent="dNxyNK7c78bLwvsdeMH5-19" source="64y1LBpcgvXxOkqX7Srh-7" target="64y1LBpcgvXxOkqX7Srh-9">
          <mxGeometry relative="1" as="geometry" />
        </mxCell>
      </root>
    </mxGraphModel>
  </diagram>
</mxfile>
